<?xml version="1.0" encoding="utf-8"?>
<!-- Generator: Adobe Illustrator 16.0.0, SVG Export Plug-In . SVG Version: 6.00 Build 0)  -->
<!DOCTYPE svg PUBLIC "-//W3C//DTD SVG 1.1//EN" "http://www.w3.org/Graphics/SVG/1.1/DTD/svg11.dtd">
<svg version="1.1" id="Layer_1" xmlns="http://www.w3.org/2000/svg" xmlns:xlink="http://www.w3.org/1999/xlink" x="0px" y="0px"
	 width="400px" height="232.223px" viewBox="0 0 400 232.223" style="enable-background:new 0 0 400 232.223;" xml:space="preserve"
	>
<path style="opacity:0.2;fill:#010202;" d="M400,225.44c0,3.746-89.542,6.782-199.998,6.782C89.542,232.223,0,229.187,0,225.44
	c0-3.741,89.542-6.778,200.002-6.778C310.458,218.662,400,221.699,400,225.44z"/>
<path style="fill:#010202;" d="M107.461,214.891c0,6.227-5.042,11.266-11.265,11.266c-6.223,0-11.265-5.039-11.265-11.266
	c0-6.22,5.042-11.265,11.265-11.265C102.419,203.626,107.461,208.671,107.461,214.891z"/>
<path style="fill:#010202;" d="M325.379,214.891c0,6.227-5.043,11.266-11.266,11.266c-6.222,0-11.265-5.039-11.265-11.266
	c0-6.22,5.043-11.265,11.265-11.265C320.336,203.626,325.379,208.671,325.379,214.891z"/>
<path style="fill:#525252;" d="M112.018,193.284l-17.036-3.036l-16.052,3.283c0,0,0.281,20.469,7.602,20.469c7.323,0,8.45,0,8.45,0
	s3.095,0,10.419,0C112.722,214,112.018,193.284,112.018,193.284z"/>
<path style="fill:#525252;" d="M329.935,193.284l-17.035-3.036l-16.052,3.283c0,0,0.281,20.469,7.603,20.469
	c7.323,0,8.449,0,8.449,0s3.096,0,10.419,0C330.639,214,329.935,193.284,329.935,193.284z"/>
<rect x="47.501" y="3" style="fill:#2A432F;" width="44" height="202"/>
<rect x="315.501" y="3" style="fill:#2A432F;" width="43" height="202"/>
<rect x="47.501" style="fill:#37613E;" width="311" height="46"/>
<rect x="47.501" y="55" style="fill:#37613E;" width="311" height="43"/>
<rect x="47.501" y="107" style="fill:#37613E;" width="311" height="47"/>
<rect x="47.501" y="162" style="fill:#37613E;" width="311" height="43"/>
<g>
	<path style="fill:none;stroke:#2A432F;stroke-width:0.5;stroke-miterlimit:10;" d="M47.52,21.388
		c2.542,0,152.12-2.361,201.877-1.635c49.758,0.727,66.465-0.363,84.987,0c18.523,0.363,23.971,0.267,23.971,0.267"/>
	<path style="fill:none;stroke:#2A432F;stroke-width:0.5;stroke-miterlimit:10;" d="M47.46,32.97c0,0,96.247,2.401,147.095,2.401
		c50.847,0,74.091-1.816,105.688-2.179c31.599-0.363,58.111-0.164,58.111-0.164"/>
	<path style="fill:none;stroke:#2A432F;stroke-width:0.5;stroke-miterlimit:10;" d="M358.354,60.068
		c0,0-117.675,4.358-153.994,3.632c-36.319-0.726-86.803-2.463-105.326-1.776c-18.523,0.687-51.574,0-51.574,0"/>
	<path style="fill:none;stroke:#2A432F;stroke-width:0.5;stroke-miterlimit:10;" d="M47.46,75.322c0,0,26.15-1.453,66.828,0
		c40.678,1.453,119.49,5.448,150.362,5.448s69.007,1.089,73.365,0c4.358-1.09,20.339-2.803,20.339-2.803"/>
	<path style="fill:none;stroke:#2A432F;stroke-width:0.5;stroke-miterlimit:10;" d="M358.354,86.581
		c0,0-110.598,2.906-135.201,2.542s-55.838-1.419-86.347-1.254c-30.508,0.164-89.346-1.289-89.346-1.289"/>
	<path style="fill:none;stroke:#2A432F;stroke-width:0.5;stroke-miterlimit:10;" d="M47.46,115.637c0,0,11.986-1.816,56.295-0.363
		c44.31,1.453,101.331,3.269,128.571,3.995c27.239,0.727,59.563,0,83.898,0c24.334,0,42.13-1.975,42.13-1.975"/>
	<path style="fill:none;stroke:#2A432F;stroke-width:0.5;stroke-miterlimit:10;" d="M358.354,129.16c0,0-72.275,4.273-111.864,4.273
		c-39.588,0-146.003-1.453-163.437-2.18c-17.433-0.727-35.593-2.179-35.593-2.179"/>
	<path style="fill:none;stroke:#2A432F;stroke-width:0.5;stroke-miterlimit:10;" d="M47.46,143.421c0,0,188.498-2.724,212.469-2.724
		s94.068-0.419,98.426-0.056"/>
	<path style="fill:none;stroke:#2A432F;stroke-width:0.5;stroke-miterlimit:10;" d="M47.46,179.196c0,0,113.317,2.179,181.961,1.815
		s128.934-0.891,128.934-0.891"/>
	<path style="fill:none;stroke:#2A432F;stroke-width:0.5;stroke-miterlimit:10;" d="M358.354,190.49c0,0-73.729,2.507-115.859,1.418
		c-42.129-1.09-136.436-1.476-157.564-1.464c-21.127,0.011-37.471,1.736-37.471,1.736"/>
	<path style="fill:none;stroke:#2A432F;stroke-width:0.5;stroke-miterlimit:10;" d="M47.46,7.041c0,0,145.642,2.542,195.762,2.906
		c50.121,0.363,115.133-1.413,115.133-1.413"/>
	<path style="fill:none;stroke:#2A432F;stroke-width:0.5;stroke-miterlimit:10;" d="M358.354,168.045
		c0,0-31.598,2.798-147.457,1.708c-115.858-1.09-150.362-2.179-153.994-1.815c-3.632,0.362-9.443-0.074-9.443-0.074"/>
</g>
</svg>
