<?xml version="1.0" encoding="utf-8"?>
<!-- Generator: Adobe Illustrator 16.0.0, SVG Export Plug-In . SVG Version: 6.00 Build 0)  -->
<!DOCTYPE svg PUBLIC "-//W3C//DTD SVG 1.1//EN" "http://www.w3.org/Graphics/SVG/1.1/DTD/svg11.dtd">
<svg version="1.1" id="Layer_1" xmlns="http://www.w3.org/2000/svg" xmlns:xlink="http://www.w3.org/1999/xlink" x="0px" y="0px"
	 viewBox="0 0 143.523 149.68" style="enable-background:new 0 0 143.523 149.68;"
	 xml:space="preserve">
<path style="fill:none;stroke:#010202;stroke-miterlimit:10;" d="M124.973,75.939c0,31.706-25.701,57.406-57.414,57.406
	c-31.707,0-57.408-25.7-57.408-57.406c0-31.707,25.701-57.41,57.408-57.41C99.271,18.529,124.973,44.232,124.973,75.939z"/>
<path style="fill:#8EC5DB;stroke:#010202;stroke-width:3;stroke-miterlimit:10;" d="M96.057,26.107
	c-1.775-4.846-4.514-10.674-7.121-14.104C84.292,5.898,77.57,0.834,64.802,1.571C52.035,2.31,40.509,9.164,34.496,15.917
	c-5.132,5.759-6.042,9.426-6.39,18.34c-11.05,10.464-17.955,25.262-17.955,41.682c0,31.706,25.701,57.406,57.408,57.406
	c31.712,0,57.414-25.7,57.414-57.406C124.973,54.606,113.329,36.005,96.057,26.107z"/>
<g>
	<path style="fill:none;stroke:#010202;stroke-width:4;stroke-miterlimit:10;" d="M26.14,109.227
		c-0.093,3.305-0.122,8.8-0.127,12.604c-0.005,1.526,0.161,20.54,0.161,20.83c0,0.388-0.73,0.872-1.708,0.872
		c-0.583-0.004-1.752-0.985-1.757-2.053c0-0.105,0.021-0.219,0.062-0.337c0.13-0.516,0.195-1.107,0.207-8.101
		c-1.442-9.186-11.652-16.072-11.647-20.027c0.002-0.924,0.843-2.121,1.224-3.08c0.536-1.358,1.207-1.975,1.948-2.234
		c1.065-0.373,6.245-1.304,8.519-1.663c0-0.229,0.002-0.448,0.004-0.658c0.001-1.508-0.046-2.336-0.046-2.678
		c0-0.29,0.584-0.582,1.021-0.58c0.789,0,2.447,1.229,2.438,2.146c0,0.1-0.021,0.193-0.056,0.288
		c-0.029,0.11-0.057,0.783-0.085,1.036c2.206-0.28,5.472-0.443,6.167-0.44c1.071,0.001,2.093,1.27,2.091,2.241
		c-0.001,0.562-0.551,1.917-1.124,1.7c-0.438-0.097-1.021-0.148-1.848-0.148C30.194,108.943,28.287,109.024,26.14,109.227
		L26.14,109.227z M13.469,112.021c-0.004,1.635,7.763,10.635,9.341,15.238c0.018,0.056,0.042,0.08,0.062,0.078
		c0.039,0,0.066-0.064,0.066-0.158c0.005-4.487,0-11.051,0.001-13.268c0.003-1.543,0.01-3.03,0.037-4.358
		C21.529,109.763,13.471,110.567,13.469,112.021z"/>
	<path style="fill:none;stroke:#010202;stroke-width:4;stroke-miterlimit:10;" d="M38.101,132.458
		c-0.461,3.968-1.594,7.349-3.412,7.345c-0.535,0-0.934-0.239-1.564-0.439c-1.077-0.344-1.775-0.678-2.563-2.145
		c-0.687-1.282-0.864-3.046-0.859-4.457c0-0.602,0.051-1.308,0.146-2.023c-0.328-0.758-0.499-1.688-0.496-2.799
		c0.005-4.658,1.751-9.213,4.034-9.208c0.729,0.001,1.225,0.487,1.663,0.588c0.881,0.194,1.602,0.664,2.117,1.56
		c0.784,1.365,1.183,4.273,1.175,7.412c0,0.44-0.008,0.889-0.023,1.335c0.906-0.496,1.697-1.062,2.265-1.638
		c0.095-0.098,0.144-0.193,0.287-0.193c0.341,0.003,1.078,0.586,1.093,1.512C41.98,130.323,40.135,131.617,38.101,132.458z
		 M32.039,126.598c0.686,0.167,1.331,0.871,1.34,1.428c0,0.098-0.047,0.243-0.188,0.339c-0.284,0.217-0.583,1.324-0.701,2.98
		l0.024,0.033c0.859-0.019,1.828-0.199,2.803-0.491c0.053-0.776,0.084-1.616,0.085-2.518c0.006-3.748-0.424-7.645-1.106-7.645
		C33.713,120.725,32.513,123.676,32.039,126.598z M33.35,137.951c0.399,0,1.234-1.537,1.708-4.65
		c-0.201,0.02-0.395,0.029-0.574,0.029c-0.761-0.001-1.444-0.095-2.048-0.284c0.02,1.915,0.481,4.907,0.913,4.907L33.35,137.951
		L33.35,137.951z"/>
	<path style="fill:none;stroke:#010202;stroke-width:4;stroke-miterlimit:10;" d="M47.382,136.978
		c-1.113-0.985-1.438-3.063-1.438-5.185c0.001-0.864,0.058-1.735,0.136-2.542c0.006-0.028,0.006-0.059,0.006-0.079
		c0-0.12-0.036-0.18-0.081-0.178c-0.051,0-0.115,0.086-0.159,0.256c-0.832,3.369-1.62,7.184-2.479,10.029
		c-0.048,0.438-0.243,0.582-0.584,0.582c-0.778-0.001-2.259-0.823-2.284-1.805c-0.021-0.871-0.045-2.383-0.042-4.135
		c0.006-3.553,0.065-10.074,0.069-12.846c0.001-1.169-0.146-2.096-0.146-2.388c0.002-0.484,0.83-0.63,1.316-0.63
		c0.896,0.002,1.92,0.864,1.92,1.454c0,0.053-0.003,0.105-0.022,0.154c-0.104,0.413-0.152,2.085-0.182,4.536
		c-0.021,1.998-0.126,7.516-0.136,10.134c0,0.053,0.021,0.093,0.05,0.093c0.032,0.001,0.071-0.046,0.104-0.17
		c1.107-4.097,2.396-11.164,2.544-13.08c0.038-0.487,0.634-0.875,1.218-0.873c1.016,0.002,2.583,1.562,2.582,2.449
		c0,0.175-0.196,0.465-0.24,0.671c-0.433,2.869-0.657,7.135-0.658,9.191c-0.006,2.579,0.188,3.748,0.535,3.739
		c0.675,0.01,2.189-4.271,2.627-7.024c0.022-0.12,0.16-0.224,0.332-0.224c0.496,0.002,1.335,0.484,1.32,1.183
		c-0.051,2.171-1.73,8.226-3.996,8.218C48.756,138.513,48.216,137.717,47.382,136.978z"/>
	<path style="fill:none;stroke:#010202;stroke-width:4;stroke-miterlimit:10;" d="M55.175,106.29c-0.002,0.531-0.092,1.771-0.235,3
		c-0.163,1.354-0.394,2.696-0.647,3.081c-0.098,0.146-0.293,0.193-0.485,0.193c-0.695,0-1.394-0.447-1.395-0.795
		c0-0.062,0.024-0.125,0.079-0.18c0.098-0.293,0.244-1.266,0.392-2.288c-0.875-0.146-1.263-0.926-1.261-1.705
		c0.001-1.021,0.345-3.259,1.366-3.257C53.717,104.341,55.178,104.977,55.175,106.29z"/>
	<path style="fill:none;stroke:#010202;stroke-width:4;stroke-miterlimit:10;" d="M64.823,135.667
		c-0.004,2.725-3.074,4.566-4.922,4.562c-1.364-0.002-2.189-1.313-2.188-2.145c0.002-0.524,0.214-0.654,0.451-0.649
		c0.217,0.003,0.458,0.121,0.581,0.146c1.062,0.02,3.596-1.242,3.617-1.922c-0.021-1.12-6.591,0.522-6.581-6.144
		c0.004-3.697,1.867-10.166,3.813-10.164c0.535,0.001,1.354,0.413,1.821,0.857c0-2.104-0.217-2.847-0.217-3.155
		c0-0.396,0.63-0.848,1.222-0.846c0.907,0,1.848,1.11,1.846,1.788c0,0.167-0.041,0.396-0.062,0.678
		c-0.073,1.15-0.252,3.29-0.256,5.23c-0.002,1.708,0.07,3.865,0.105,4.895c0.015,0.396-0.551,0.8-1.125,0.8
		c-0.736-0.002-1.87-1.107-1.843-1.926c0.032-0.932,0.287-3.781,0.319-6.233c-1.235,0.734-2.656,6.085-2.659,8.52
		C58.742,134.682,64.829,131.871,64.823,135.667z"/>
	<path style="fill:none;stroke:#010202;stroke-width:4;stroke-miterlimit:10;" d="M95.937,109.338
		c-0.09,3.304-0.12,8.8-0.126,12.604c-0.004,1.528,0.162,20.541,0.162,20.829c0,0.391-0.731,0.873-1.707,0.872
		c-0.582,0-1.754-0.982-1.759-2.051c0-0.107,0.021-0.218,0.062-0.336c0.13-0.519,0.196-1.11,0.208-8.103
		c-1.443-9.184-11.652-16.072-11.646-20.025c0.002-0.926,0.845-2.121,1.224-3.081c0.537-1.361,1.207-1.977,1.95-2.235
		c1.062-0.373,6.242-1.302,8.516-1.663c0-0.229,0.003-0.446,0.004-0.659c0.002-1.508-0.045-2.335-0.045-2.677
		c0-0.29,0.585-0.582,1.021-0.582c0.789,0.001,2.447,1.23,2.438,2.149c0,0.098-0.021,0.191-0.056,0.288
		c-0.029,0.106-0.059,0.78-0.085,1.035c2.207-0.278,5.471-0.442,6.168-0.44c1.068,0,2.091,1.267,2.089,2.239
		c-0.003,0.562-0.55,1.919-1.124,1.701c-0.438-0.1-1.021-0.147-1.848-0.148c-1.391-0.001-3.298,0.079-5.441,0.282L95.937,109.338
		L95.937,109.338z M83.266,112.132c-0.001,1.635,7.765,10.635,9.341,15.238c0.019,0.055,0.044,0.08,0.062,0.075
		c0.04,0,0.066-0.062,0.066-0.156c0.006-4.485,0-11.052,0.002-13.268c0.004-1.544,0.011-3.029,0.036-4.356
		C91.326,109.873,83.269,110.677,83.266,112.132z"/>
	<path style="fill:none;stroke:#010202;stroke-width:4;stroke-miterlimit:10;" d="M111.263,129.208c0.492,0,1.335,0.484,1.316,1.184
		c-0.051,1.877-1.858,8.925-4.129,8.918c-0.331,0-1.078-0.175-2.007-1.88c-0.382-0.7-0.723-1.459-0.88-2.565
		c-0.011-0.078-0.038-0.111-0.066-0.111c-0.027,0-0.062,0.04-0.073,0.109c-0.474,2.633-1.312,5.095-2.604,5.094
		c-0.876-0.003-1.536-0.779-2.157-2.021c-0.501-1.006-1.269-2-1.265-4.791c0.007-3.891,0.146-9.836,0.148-12.506
		c0-0.646-0.083-1.273-0.083-1.566c0-0.42,0.937-0.916,1.318-0.913c0.955,0.004,2.011,1.108,2.012,1.828
		c0,0.088-0.021,0.179-0.067,0.266c-0.344,1.512-0.494,7.088-0.5,10.857c-0.006,3.278,0.174,6.072,0.631,6.069
		c1.009-0.007,2.623-8.074,2.635-15.18c0-0.903-0.075-1.463-0.075-1.739c0.003-0.451,0.799-0.782,1.156-0.779
		c0.834,0,2.002,0.938,1.999,1.813c0,0.043-0.002,0.087-0.009,0.135c-0.255,1.261-0.456,7.829-0.462,11.415
		c-0.004,2.389,0.092,3.781,0.351,3.781c0.503,0.001,1.991-4.221,2.479-7.195c0.021-0.12,0.156-0.222,0.332-0.219V129.208
		L111.263,129.208z"/>
	<path style="fill:none;stroke:#010202;stroke-width:4;stroke-miterlimit:10;" d="M110.594,140.896c0-0.146,0.029-0.34,0.047-0.438
		c0.051-0.924,0.053-2.143,0.055-3.602l0.006-3.894c0.009-4.915,0.171-14.404,0.177-18.882c0.006-3.602-0.234-4.721-0.231-5.157
		c0-0.486,0.924-0.777,1.359-0.777c0.927,0.002,1.946,0.93,1.943,1.707c0,0.146-0.048,0.34-0.096,0.438
		c-0.098,0.473-0.403,11.648-0.414,18.459c0,0.069,0.031,0.14,0.076,0.142c0.032,0,0.067-0.054,0.098-0.187
		c0.718-4.284,1.186-9.604,2.707-9.604c0.292,0,0.535,0.195,1.069,0.394c0.609,0.222,0.973,0.244,1.359,0.537
		c0.975,0.729,1.896,2.679,1.89,6.912c-0.014,6.325-2.112,13.038-5.616,13.032c-0.534-0.003-1.169-0.146-1.605-0.49v0.438
		c-0.003,0.633-0.003,1.07,0.145,1.51c0.048,0.101,0.096,0.195,0.096,0.293c0,0.243-0.146,0.438-0.632,0.438
		C112.439,142.166,110.591,141.772,110.594,140.896z M117.721,125.677c0.003-1.995-0.237-4.575-0.625-4.575
		c-0.877-0.001-2.939,12.354-3.53,17.172C116.242,137.402,117.714,130.543,117.721,125.677z"/>
	<path style="fill:none;stroke:#010202;stroke-width:4;stroke-miterlimit:10;" d="M130.406,135.771
		c-0.005,2.727-3.074,4.568-4.922,4.567c-1.364-0.005-2.19-1.319-2.188-2.146c0.002-0.522,0.214-0.652,0.451-0.649
		c0.216,0.004,0.458,0.123,0.581,0.148c1.062,0.02,3.596-1.243,3.617-1.925c-0.021-1.117-6.592,0.524-6.582-6.142
		c0.006-3.697,1.866-10.166,3.812-10.164c0.537,0.002,1.355,0.412,1.823,0.855c0-2.102-0.216-2.846-0.216-3.153
		c0-0.396,0.629-0.85,1.222-0.848c0.907,0,1.848,1.112,1.846,1.787c0,0.169-0.041,0.397-0.062,0.679
		c-0.073,1.15-0.252,3.289-0.256,5.231c-0.001,1.709,0.069,3.866,0.106,4.894c0.014,0.396-0.552,0.804-1.129,0.803
		c-0.733,0-1.866-1.107-1.84-1.925c0.032-0.933,0.286-3.782,0.317-6.235c-1.234,0.732-2.654,6.086-2.657,8.519
		C124.323,134.789,130.411,131.974,130.406,135.771z"/>
</g>
<g>
	<path style="fill:none;stroke:#FFFFFF;stroke-width:3;stroke-miterlimit:10;" d="M26.14,109.227
		c-0.093,3.305-0.122,8.8-0.127,12.604c-0.005,1.526,0.161,20.54,0.161,20.83c0,0.388-0.73,0.872-1.708,0.872
		c-0.583-0.004-1.752-0.985-1.757-2.053c0-0.105,0.021-0.219,0.062-0.337c0.13-0.516,0.195-1.107,0.207-8.101
		c-1.442-9.186-11.652-16.072-11.647-20.027c0.002-0.924,0.843-2.121,1.224-3.08c0.536-1.358,1.207-1.975,1.948-2.234
		c1.065-0.373,6.245-1.304,8.519-1.663c0-0.229,0.002-0.448,0.004-0.658c0.001-1.508-0.046-2.336-0.046-2.678
		c0-0.29,0.584-0.582,1.021-0.58c0.789,0,2.447,1.229,2.438,2.146c0,0.1-0.021,0.193-0.056,0.288
		c-0.029,0.11-0.057,0.783-0.085,1.036c2.206-0.28,5.472-0.443,6.167-0.44c1.071,0.001,2.093,1.27,2.091,2.241
		c-0.001,0.562-0.551,1.917-1.124,1.7c-0.438-0.097-1.021-0.148-1.848-0.148C30.194,108.943,28.287,109.024,26.14,109.227
		L26.14,109.227z M13.469,112.021c-0.004,1.635,7.763,10.635,9.341,15.238c0.018,0.056,0.042,0.08,0.062,0.078
		c0.039,0,0.066-0.064,0.066-0.158c0.005-4.487,0-11.051,0.001-13.268c0.003-1.543,0.01-3.03,0.037-4.358
		C21.529,109.763,13.471,110.567,13.469,112.021z"/>
	<path style="fill:none;stroke:#FFFFFF;stroke-width:3;stroke-miterlimit:10;" d="M38.101,132.458
		c-0.461,3.968-1.594,7.349-3.412,7.345c-0.535,0-0.934-0.239-1.564-0.439c-1.077-0.344-1.775-0.678-2.563-2.145
		c-0.687-1.282-0.864-3.046-0.859-4.457c0-0.602,0.051-1.308,0.146-2.023c-0.328-0.758-0.499-1.688-0.496-2.799
		c0.005-4.658,1.751-9.213,4.034-9.208c0.729,0.001,1.225,0.487,1.663,0.588c0.881,0.194,1.602,0.664,2.117,1.56
		c0.784,1.365,1.183,4.273,1.175,7.412c0,0.44-0.008,0.889-0.023,1.335c0.906-0.496,1.697-1.062,2.265-1.638
		c0.095-0.098,0.144-0.193,0.287-0.193c0.341,0.003,1.078,0.586,1.093,1.512C41.98,130.323,40.135,131.617,38.101,132.458z
		 M32.039,126.598c0.686,0.167,1.331,0.871,1.34,1.428c0,0.098-0.047,0.243-0.188,0.339c-0.284,0.217-0.583,1.324-0.701,2.98
		l0.024,0.033c0.859-0.019,1.828-0.199,2.803-0.491c0.053-0.776,0.084-1.616,0.085-2.518c0.006-3.748-0.424-7.645-1.106-7.645
		C33.713,120.725,32.513,123.676,32.039,126.598z M33.35,137.951c0.399,0,1.234-1.537,1.708-4.65
		c-0.201,0.02-0.395,0.029-0.574,0.029c-0.761-0.001-1.444-0.095-2.048-0.284c0.02,1.915,0.481,4.907,0.913,4.907L33.35,137.951
		L33.35,137.951z"/>
	<path style="fill:none;stroke:#FFFFFF;stroke-width:3;stroke-miterlimit:10;" d="M47.382,136.978
		c-1.113-0.985-1.438-3.063-1.438-5.185c0.001-0.864,0.058-1.735,0.136-2.542c0.006-0.028,0.006-0.059,0.006-0.079
		c0-0.12-0.036-0.18-0.081-0.178c-0.051,0-0.115,0.086-0.159,0.256c-0.832,3.369-1.62,7.184-2.479,10.029
		c-0.048,0.438-0.243,0.582-0.584,0.582c-0.778-0.001-2.259-0.823-2.284-1.805c-0.021-0.871-0.045-2.383-0.042-4.135
		c0.006-3.553,0.065-10.074,0.069-12.846c0.001-1.169-0.146-2.096-0.146-2.388c0.002-0.484,0.83-0.63,1.316-0.63
		c0.896,0.002,1.92,0.864,1.92,1.454c0,0.053-0.003,0.105-0.022,0.154c-0.104,0.413-0.152,2.085-0.182,4.536
		c-0.021,1.998-0.126,7.516-0.136,10.134c0,0.053,0.021,0.093,0.05,0.093c0.032,0.001,0.071-0.046,0.104-0.17
		c1.107-4.097,2.396-11.164,2.544-13.08c0.038-0.487,0.634-0.875,1.218-0.873c1.016,0.002,2.583,1.562,2.582,2.449
		c0,0.175-0.196,0.465-0.24,0.671c-0.433,2.869-0.657,7.135-0.658,9.191c-0.006,2.579,0.188,3.748,0.535,3.739
		c0.675,0.01,2.189-4.271,2.627-7.024c0.022-0.12,0.16-0.224,0.332-0.224c0.496,0.002,1.335,0.484,1.32,1.183
		c-0.051,2.171-1.73,8.226-3.996,8.218C48.756,138.513,48.216,137.717,47.382,136.978z"/>
	<path style="fill:none;stroke:#FFFFFF;stroke-width:3;stroke-miterlimit:10;" d="M55.175,106.29c-0.002,0.531-0.092,1.771-0.235,3
		c-0.163,1.354-0.394,2.696-0.647,3.081c-0.098,0.146-0.293,0.193-0.485,0.193c-0.695,0-1.394-0.447-1.395-0.795
		c0-0.062,0.024-0.125,0.079-0.18c0.098-0.293,0.244-1.266,0.392-2.288c-0.875-0.146-1.263-0.926-1.261-1.705
		c0.001-1.021,0.345-3.259,1.366-3.257C53.717,104.341,55.178,104.977,55.175,106.29z"/>
	<path style="fill:none;stroke:#FFFFFF;stroke-width:3;stroke-miterlimit:10;" d="M64.823,135.667
		c-0.004,2.725-3.074,4.566-4.922,4.562c-1.364-0.002-2.189-1.313-2.188-2.145c0.002-0.524,0.214-0.654,0.451-0.649
		c0.217,0.003,0.458,0.121,0.581,0.146c1.062,0.02,3.596-1.242,3.617-1.922c-0.021-1.12-6.591,0.522-6.581-6.144
		c0.004-3.697,1.867-10.166,3.813-10.164c0.535,0.001,1.354,0.413,1.821,0.857c0-2.104-0.217-2.847-0.217-3.155
		c0-0.396,0.63-0.848,1.222-0.846c0.907,0,1.848,1.11,1.846,1.788c0,0.167-0.041,0.396-0.062,0.678
		c-0.073,1.15-0.252,3.29-0.256,5.23c-0.002,1.708,0.07,3.865,0.105,4.895c0.015,0.396-0.551,0.8-1.125,0.8
		c-0.736-0.002-1.87-1.107-1.843-1.926c0.032-0.932,0.287-3.781,0.319-6.233c-1.235,0.734-2.656,6.085-2.659,8.52
		C58.742,134.682,64.829,131.871,64.823,135.667z"/>
	<path style="fill:none;stroke:#FFFFFF;stroke-width:3;stroke-miterlimit:10;" d="M95.937,109.338
		c-0.09,3.304-0.12,8.8-0.126,12.604c-0.004,1.528,0.162,20.541,0.162,20.829c0,0.391-0.731,0.873-1.707,0.872
		c-0.582,0-1.754-0.982-1.759-2.051c0-0.107,0.021-0.218,0.062-0.336c0.13-0.519,0.196-1.11,0.208-8.103
		c-1.443-9.184-11.652-16.072-11.646-20.025c0.002-0.926,0.845-2.121,1.224-3.081c0.537-1.361,1.207-1.977,1.95-2.235
		c1.062-0.373,6.242-1.302,8.516-1.663c0-0.229,0.003-0.446,0.004-0.659c0.002-1.508-0.045-2.335-0.045-2.677
		c0-0.29,0.585-0.582,1.021-0.582c0.789,0.001,2.447,1.23,2.438,2.149c0,0.098-0.021,0.191-0.056,0.288
		c-0.029,0.106-0.059,0.78-0.085,1.035c2.207-0.278,5.471-0.442,6.168-0.44c1.068,0,2.091,1.267,2.089,2.239
		c-0.003,0.562-0.55,1.919-1.124,1.701c-0.438-0.1-1.021-0.147-1.848-0.148c-1.391-0.001-3.298,0.079-5.441,0.282L95.937,109.338
		L95.937,109.338z M83.266,112.132c-0.001,1.635,7.765,10.635,9.341,15.238c0.019,0.055,0.044,0.08,0.062,0.075
		c0.04,0,0.066-0.062,0.066-0.156c0.006-4.485,0-11.052,0.002-13.268c0.004-1.544,0.011-3.029,0.036-4.356
		C91.326,109.873,83.269,110.677,83.266,112.132z"/>
	<path style="fill:none;stroke:#FFFFFF;stroke-width:3;stroke-miterlimit:10;" d="M111.263,129.208c0.492,0,1.335,0.484,1.316,1.184
		c-0.051,1.877-1.858,8.925-4.129,8.918c-0.331,0-1.078-0.175-2.007-1.88c-0.382-0.7-0.723-1.459-0.88-2.565
		c-0.011-0.078-0.038-0.111-0.066-0.111c-0.027,0-0.062,0.04-0.073,0.109c-0.474,2.633-1.312,5.095-2.604,5.094
		c-0.876-0.003-1.536-0.779-2.157-2.021c-0.501-1.006-1.269-2-1.265-4.791c0.007-3.891,0.146-9.836,0.148-12.506
		c0-0.646-0.083-1.273-0.083-1.566c0-0.42,0.937-0.916,1.318-0.913c0.955,0.004,2.011,1.108,2.012,1.828
		c0,0.088-0.021,0.179-0.067,0.266c-0.344,1.512-0.494,7.088-0.5,10.857c-0.006,3.278,0.174,6.072,0.631,6.069
		c1.009-0.007,2.623-8.074,2.635-15.18c0-0.903-0.075-1.463-0.075-1.739c0.003-0.451,0.799-0.782,1.156-0.779
		c0.834,0,2.002,0.938,1.999,1.813c0,0.043-0.002,0.087-0.009,0.135c-0.255,1.261-0.456,7.829-0.462,11.415
		c-0.004,2.389,0.092,3.781,0.351,3.781c0.503,0.001,1.991-4.221,2.479-7.195c0.021-0.12,0.156-0.222,0.332-0.219V129.208
		L111.263,129.208z"/>
	<path style="fill:none;stroke:#FFFFFF;stroke-width:3;stroke-miterlimit:10;" d="M110.594,140.896c0-0.146,0.029-0.34,0.047-0.438
		c0.051-0.924,0.053-2.143,0.055-3.602l0.006-3.894c0.009-4.915,0.171-14.404,0.177-18.882c0.006-3.602-0.234-4.721-0.231-5.157
		c0-0.486,0.924-0.777,1.359-0.777c0.927,0.002,1.946,0.93,1.943,1.707c0,0.146-0.048,0.34-0.096,0.438
		c-0.098,0.473-0.403,11.648-0.414,18.459c0,0.069,0.031,0.14,0.076,0.142c0.032,0,0.067-0.054,0.098-0.187
		c0.718-4.284,1.186-9.604,2.707-9.604c0.292,0,0.535,0.195,1.069,0.394c0.609,0.222,0.973,0.244,1.359,0.537
		c0.975,0.729,1.896,2.679,1.89,6.912c-0.014,6.325-2.112,13.038-5.616,13.032c-0.534-0.003-1.169-0.146-1.605-0.49v0.438
		c-0.003,0.633-0.003,1.07,0.145,1.51c0.048,0.101,0.096,0.195,0.096,0.293c0,0.243-0.146,0.438-0.632,0.438
		C112.439,142.166,110.591,141.772,110.594,140.896z M117.721,125.677c0.003-1.995-0.237-4.575-0.625-4.575
		c-0.877-0.001-2.939,12.354-3.53,17.172C116.242,137.402,117.714,130.543,117.721,125.677z"/>
	<path style="fill:none;stroke:#FFFFFF;stroke-width:3;stroke-miterlimit:10;" d="M130.406,135.771
		c-0.005,2.727-3.074,4.568-4.922,4.567c-1.364-0.005-2.19-1.319-2.188-2.146c0.002-0.522,0.214-0.652,0.451-0.649
		c0.216,0.004,0.458,0.123,0.581,0.148c1.062,0.02,3.596-1.243,3.617-1.925c-0.021-1.117-6.592,0.524-6.582-6.142
		c0.006-3.697,1.866-10.166,3.812-10.164c0.537,0.002,1.355,0.412,1.823,0.855c0-2.102-0.216-2.846-0.216-3.153
		c0-0.396,0.629-0.85,1.222-0.848c0.907,0,1.848,1.112,1.846,1.787c0,0.169-0.041,0.397-0.062,0.679
		c-0.073,1.15-0.252,3.289-0.256,5.231c-0.001,1.709,0.069,3.866,0.106,4.894c0.014,0.396-0.552,0.804-1.129,0.803
		c-0.733,0-1.866-1.107-1.84-1.925c0.032-0.933,0.286-3.782,0.317-6.235c-1.234,0.732-2.654,6.086-2.657,8.519
		C124.323,134.789,130.411,131.974,130.406,135.771z"/>
</g>
<g>
	<path style="fill:none;stroke:#010202;stroke-width:2;stroke-miterlimit:10;" d="M88.936,12.002
		C84.292,5.898,77.57,0.834,64.802,1.571C52.035,2.31,40.509,9.164,34.496,15.917c-6.017,6.752-6.233,10.602-6.541,23.438
		c-0.31,12.837,5.356,18.128,5.356,18.128c0.351-0.389-0.103-0.592,1.561-1.171c-3.472,1.927-4.586,6.251-2.473,9.73
		c2.718,4.474,7.161,8.316,9.251,12.12c2.089,3.802,6.736,3.337,8.035,0.826c4.428,8.207,15.084,16.767,21.418,20.444
		c6.336,3.681,15.006,2.985,18.995,1.355c3.986-1.629,4.371-9.463,5.086-12.979c0.711-3.512,3.403-5.688,5.949-10.847
		c2.554-5.159-0.273-12.954-1.561-16.547c-1.29-3.593-1.912-9.064-1.528-11.192c0.728-1.729-0.438-5.013-1.376-11.255
		c-0.312-2.101-0.968-4.425-1.692-6.59c0.315-0.225,0.621-0.202,0.695,0.193c0.157,0.831,1.572,4.729,2.267,2.478
		C98.628,31.801,93.577,18.107,88.936,12.002z"/>
	<path style="fill:#EED3B9;" d="M91.829,23.477c0,0,3.908,8.251,4.842,14.493c0.938,6.242,2.104,9.526,1.376,11.255
		c-0.384,2.128,0.238,7.603,1.528,11.192c1.285,3.593,4.112,11.389,1.562,16.547c-2.548,5.158-5.24,7.335-5.951,10.847
		c-0.715,3.517-1.1,11.351-5.086,12.979c-3.988,1.63-12.658,2.323-18.995-1.355c-6.334-3.68-16.99-12.237-21.418-20.443
		c-1.299,2.511-5.946,2.976-8.035-0.827c-2.09-3.804-6.533-7.646-9.251-12.12c-2.718-4.479-0.112-10.374,6.011-10.729
		C35.663,41.579,57.704-0.901,91.829,23.477z"/>
	<path style="fill:#DCBDA6;" d="M92.771,25.599c-2.822,0.593-10.161,2.459-4.792,4.938c6.55,3.021,8.414,16.795,8.414,16.795
		s0.757,0.108,1.876,0.271c-0.068-1.943-0.896-4.96-1.601-9.633C96.029,33.687,93.99,28.459,92.771,25.599z"/>
	<path style="fill:#DCBDA6;" d="M99.575,60.417c-1.29-3.592-1.912-9.064-1.528-11.192c0.191-0.457,0.249-1.022,0.218-1.724
		l-1.468,0.168c0,0-5.479,2.377-7.347,2.344c-1.512-0.026-1.723,4.843-1.264,6.835c0.972,4.214,3.05,7.487,4.664,8.974
		c1.714,1.578,2.896,3.048,2.113,3.898c-1.189,1.299-4.015,3.253-4.015,3.253s6.35-1.422,5.646,4.22
		c-0.705,5.645-3.7,5.947-4.621,12.193c-0.921,6.247-0.702,9.572-2.524,10.025c-1.822,0.452-2.303-1.261-2.303-0.956
		c0,1.657-0.457,2.329-0.457,2.329l-1.408,1.143c1.913-0.225,3.588-0.637,4.816-1.139c3.986-1.629,4.371-9.463,5.086-12.979
		c0.711-3.512,3.403-5.688,5.949-10.847C103.688,71.806,100.86,64.01,99.575,60.417z"/>
	<path style="fill:#DCBDA6;" d="M58.381,19.674c-14.021,8-21.654,27.22-19.971,35.641c-6.123,0.354-8.729,6.25-6.011,10.729
		c0.16,0.261,0.341,0.514,0.511,0.771c-0.172-0.591-1.608-6.077,3.896-8.08c5.816-2.116,9.708,6.386,9.983,8.141
		c0.277,1.755,5.568-0.095,6.021-3.325c0.454-3.232-5.491-17.139,0.882-24.696c6.373-7.557,19.045-12.813,22.576-2.418
		C79.31,26.811,65.987,21.743,58.381,19.674z"/>
	<path style="fill:#52483F;" d="M33.312,57.482c0,0-5.666-5.291-5.356-18.128c0.308-12.836,0.524-16.686,6.541-23.438
		C40.509,9.164,52.035,2.31,64.802,1.571c12.769-0.735,19.488,4.327,24.134,10.433c4.642,6.104,9.69,19.799,9.003,22.049
		c-0.692,2.252-2.107-1.646-2.267-2.479c-0.159-0.828-1.295-0.096-1.516,1.337c-0.373,1.494-1.363,0.823-1.909-0.296
		c-0.547-1.118-1.538,0.183-2.302,0.939c-0.766,0.76-1.597-1.496-1.754-1.881c-0.155-0.382-0.19,1.062-1.371,1.904
		c-1.181,0.839-2.451,1.445-2.398,0.263c0.057-1.188,0.651-3.667-0.139-2.538c-0.795,1.129-1.688,3.106-2.616,4.558
		c-0.928,1.454-1.479-0.11-1.61-1.311c-0.133-1.199-0.156-0.384-1.469,1.226c-1.312,1.609-2.584,4.637-3.197,2.472
		c-0.614-2.166-1.724-12.545-10.184-9.809c-8.459,2.737-16.314,5.855-14.495,25.88c1.352,10.104,2.503,10.08,0.382,12.108
		c-2.129,2.031-4.082,1.846-4.653-0.428c-0.569-2.273-2.285-12.117-8.031-10.687C32.662,56.749,33.813,56.928,33.312,57.482z"/>
	<path style="fill:#802B2B;stroke:#010202;stroke-width:0.25;stroke-miterlimit:10;" d="M94.362,78.567
		c0,0-12.093,0.195-19.756,2.698c0.562,0.934,2.269,5.339,8.958,4.399c6.687-0.94,7.671-3.136,8.663-4.437
		C93.217,79.932,94.362,78.567,94.362,78.567z"/>
	<path style="fill:#FFFFFF;stroke:#010202;stroke-width:0.25;stroke-miterlimit:10;" d="M92.005,78.656
		c-3.626,0.179-10.734,0.708-16.211,2.257c0.928,0.256,6.271,1.697,9.132,1.509c3.14-0.206,5.244-0.528,6.129-1.875
		C91.402,80.015,91.729,79.315,92.005,78.656z"/>
	<path style="fill:#52483F;" d="M60.667,53.926c0,0,6.023-5.861,12.758-6.909c6.732-1.049,6.89,0.209,8.48,0.602
		c1.591,0.389,0.04,1.292-1.653,2.251c-1.69,0.959-5.188-0.598-10.452,1.21C64.54,52.882,61.938,52.871,60.667,53.926z"/>
	<path style="fill:#52483F;" d="M88.742,50.338c0,0,6.872-4.47,9.369-4.255c1.71,1.79-0.064,3.141-0.064,3.141
		S94.417,47.576,88.742,50.338z"/>
	<g>
		<path style="fill:#010202;" d="M88.742,50.338c0,0-0.18,0.379-0.358,1.084c-0.105,0.348-0.183,0.783-0.26,1.282
			c-0.095,0.497-0.085,1.07-0.124,1.688c0.021,0.312,0.044,0.632,0.067,0.966c0.012,0.167,0.021,0.335,0.035,0.51
			c0.036,0.168,0.071,0.34,0.108,0.513c0.074,0.347,0.151,0.703,0.229,1.064c0.105,0.355,0.265,0.704,0.396,1.066
			c0.246,0.73,0.634,1.436,0.998,2.171c0.375,0.728,0.715,1.494,1.151,2.19l0.622,1.062c0.229,0.335,0.49,0.646,0.729,0.966
			c0.511,0.626,1.115,1.125,1.655,1.738c0.524,0.604,0.98,1.263,1.206,2.021c0.113,0.375,0.134,0.792,0.04,1.18
			c-0.085,0.396-0.334,0.72-0.586,0.968c-0.557,0.483-1.099,0.665-1.533,0.915c-0.432,0.238-0.808,0.453-1.076,0.651
			c-0.288,0.195-0.399,0.36-0.441,0.458c-0.043,0.091-0.044,0.21-0.048,0.195c-0.032,0.205-0.226,0.347-0.43,0.313
			c-0.205-0.031-0.346-0.223-0.312-0.428c0.014-0.009-0.005-0.109,0.107-0.377c0.113-0.262,0.388-0.544,0.707-0.748
			c0.325-0.226,0.727-0.438,1.188-0.677c0.45-0.231,1.017-0.438,1.411-0.772c0.414-0.341,0.586-0.902,0.417-1.532
			c-0.164-0.625-0.562-1.255-1.039-1.836c-0.475-0.573-1.104-1.13-1.609-1.788c-0.242-0.341-0.503-0.675-0.729-1.028l-0.605-1.104
			c-0.428-0.729-0.74-1.496-1.097-2.234c-0.344-0.739-0.711-1.463-0.945-2.222c-0.126-0.373-0.274-0.732-0.374-1.096
			c-0.069-0.372-0.137-0.736-0.203-1.092c-0.032-0.178-0.062-0.353-0.097-0.522c-0.007-0.174-0.015-0.347-0.021-0.516
			c-0.014-0.34-0.025-0.664-0.04-0.979c0.059-0.624,0.063-1.202,0.175-1.699c0.091-0.5,0.18-0.934,0.297-1.279
			C88.552,50.711,88.742,50.338,88.742,50.338z"/>
	</g>
	<path style="fill:#010202;" d="M69,54.832c-0.195,0.081-0.38,0.185-0.55,0.302c0.266,0.174,0.5,0.402,0.629,0.719
		c0.338,0.828-0.058,1.771-0.885,2.109c-0.319,0.13-0.646,0.122-0.954,0.053c0.033,0.205,0.088,0.407,0.168,0.605
		c0.608,1.486,2.303,2.197,3.79,1.592c1.485-0.606,2.199-2.3,1.592-3.788C72.183,54.939,70.486,54.226,69,54.832z"/>
	<path style="fill:#010202;" d="M90.994,52.5c-0.177,0.069-0.334,0.163-0.48,0.264c0.229,0.153,0.437,0.354,0.55,0.629
		c0.297,0.728-0.051,1.551-0.774,1.85c-0.281,0.111-0.563,0.105-0.837,0.046c0.029,0.178,0.076,0.354,0.148,0.528
		c0.529,1.304,2.014,1.926,3.315,1.394c1.301-0.531,1.925-2.016,1.396-3.315C93.778,52.594,92.294,51.969,90.994,52.5z"/>
	<g>
		<path style="fill:#010202;" d="M86.411,96.237c0,0,0.264,0.413,0.523,1.105c0.113,0.35,0.254,0.763,0.306,1.229
			c0.047,0.23,0.033,0.478,0.049,0.727c-0.032,0.245-0.019,0.507-0.099,0.753c-0.051,0.254-0.133,0.499-0.251,0.729
			c-0.089,0.245-0.257,0.438-0.395,0.646c-0.135,0.209-0.328,0.35-0.479,0.517c-0.152,0.173-0.344,0.266-0.498,0.386
			c-0.312,0.242-0.613,0.354-0.813,0.463c-0.201,0.1-0.317,0.154-0.317,0.154c-0.188,0.094-0.411,0.017-0.503-0.172
			c-0.093-0.187-0.016-0.411,0.172-0.503c0.011-0.005,0.021-0.009,0.031-0.013l0.046-0.02c0,0,0.105-0.041,0.294-0.11
			c0.185-0.078,0.473-0.152,0.757-0.338c0.142-0.094,0.328-0.156,0.466-0.291c0.141-0.131,0.328-0.236,0.457-0.403
			c0.129-0.165,0.297-0.317,0.391-0.521c0.123-0.188,0.218-0.396,0.282-0.617c0.096-0.214,0.104-0.451,0.156-0.678
			c0.007-0.229,0.044-0.459,0.02-0.683c-0.006-0.447-0.102-0.861-0.182-1.215C86.634,96.675,86.411,96.237,86.411,96.237z"/>
	</g>
</g>
<rect x="0.034" y="106.092" transform="matrix(1 0.0016 -0.0016 1 0.2044 -0.1117)" style="fill:none;" width="139.935" height="43.477"/>
<g style="enable-background:new    ;">
	<path style="fill:#010202;" d="M26.248,109.241c-0.093,3.305-0.122,8.8-0.127,12.606c-0.002,1.527,0.162,20.542,0.162,20.83
		c-0.001,0.39-0.731,0.875-1.705,0.873c-0.583-0.001-1.755-0.985-1.758-2.051c0-0.107,0.019-0.221,0.06-0.337
		c0.129-0.515,0.196-1.108,0.208-8.101c-1.443-9.187-11.655-16.076-11.648-20.031c0.001-0.925,0.842-2.122,1.221-3.08
		c0.538-1.363,1.208-1.976,1.95-2.236c1.066-0.373,6.245-1.302,8.518-1.664c0.001-0.229,0.003-0.449,0.003-0.658
		c0.002-1.509-0.045-2.336-0.044-2.677c0-0.292,0.585-0.583,1.023-0.583c0.789,0.002,2.447,1.231,2.438,2.148
		c0,0.099-0.019,0.195-0.056,0.289c-0.03,0.108-0.058,0.781-0.083,1.035c2.205-0.277,5.471-0.442,6.167-0.441
		c1.07,0.002,2.091,1.269,2.089,2.242c0,0.562-0.548,1.918-1.122,1.701c-0.438-0.098-1.022-0.147-1.85-0.148
		C30.302,108.957,28.397,109.036,26.248,109.241L26.248,109.241z M13.574,112.034c-0.002,1.634,7.765,10.638,9.342,15.24
		c0.019,0.056,0.042,0.08,0.064,0.079c0.04,0,0.065-0.065,0.065-0.159c0.006-4.487-0.001-11.052,0.002-13.268
		c0.002-1.547,0.012-3.032,0.035-4.359C21.635,109.776,13.576,110.579,13.574,112.034z"/>
	<path style="fill:#010202;" d="M38.208,132.475c-0.462,3.966-1.594,7.349-3.413,7.346c-0.536-0.001-0.931-0.239-1.564-0.441
		c-1.076-0.341-1.778-0.676-2.565-2.145c-0.686-1.282-0.864-3.048-0.862-4.457c0.001-0.602,0.051-1.308,0.147-2.023
		c-0.329-0.76-0.499-1.691-0.497-2.802c0.007-4.658,1.754-9.212,4.037-9.208c0.73,0.001,1.224,0.489,1.664,0.586
		c0.879,0.197,1.601,0.665,2.117,1.562c0.787,1.365,1.181,4.275,1.176,7.414c-0.001,0.441-0.009,0.888-0.025,1.334
		c0.904-0.498,1.697-1.062,2.263-1.637c0.095-0.097,0.143-0.194,0.289-0.194c0.341,0.001,1.08,0.586,1.095,1.511
		C42.086,130.339,40.241,131.632,38.208,132.475z M32.143,126.615c0.685,0.166,1.332,0.871,1.341,1.426
		c0.001,0.098-0.045,0.243-0.189,0.34c-0.284,0.215-0.583,1.325-0.701,2.98l0.023,0.034c0.861-0.018,1.83-0.198,2.806-0.493
		c0.052-0.774,0.083-1.614,0.084-2.518c0.006-3.747-0.426-7.642-1.107-7.643C33.82,120.74,32.619,123.692,32.143,126.615z
		 M35.164,133.316c-0.201,0.021-0.393,0.032-0.574,0.032c-0.76-0.002-1.444-0.096-2.047-0.285c0.02,1.916,0.483,4.905,0.912,4.906
		C33.857,137.969,34.693,136.43,35.164,133.316z"/>
	<path style="fill:#010202;" d="M49.803,138.531c-0.94-0.002-1.479-0.799-2.316-1.537c-1.114-0.985-1.438-3.064-1.436-5.185
		c0.001-0.864,0.057-1.736,0.136-2.542c0.003-0.028,0.004-0.056,0.004-0.08c-0.001-0.119-0.035-0.179-0.08-0.178
		c-0.052,0.001-0.118,0.086-0.16,0.255c-0.833,3.372-1.62,7.188-2.477,10.035c-0.05,0.438-0.244,0.584-0.585,0.583
		c-0.779-0.001-2.259-0.825-2.285-1.805c-0.023-0.873-0.044-2.385-0.042-4.137c0.006-3.554,0.064-10.075,0.069-12.849
		c0.001-1.169-0.143-2.093-0.143-2.386c0.001-0.486,0.829-0.63,1.315-0.63c0.897,0.002,1.922,0.865,1.921,1.455
		c0,0.053-0.005,0.105-0.025,0.153c-0.101,0.413-0.152,2.086-0.18,4.538c-0.022,1.997-0.124,7.518-0.135,10.136
		c0,0.054,0.021,0.092,0.05,0.092c0.031,0,0.071-0.047,0.103-0.171c1.108-4.096,2.398-11.165,2.544-13.082
		c0.037-0.487,0.634-0.875,1.218-0.874c1.016,0.002,2.583,1.564,2.582,2.452c0,0.175-0.196,0.464-0.238,0.67
		c-0.436,2.871-0.657,7.136-0.66,9.194c-0.004,2.579,0.188,3.747,0.536,3.741c0.674,0.008,2.19-4.271,2.629-7.028
		c0.02-0.121,0.158-0.222,0.331-0.222c0.496,0.001,1.336,0.485,1.319,1.181C53.749,132.484,52.072,138.538,49.803,138.531
		L49.803,138.531z"/>
	<path style="fill:#010202;" d="M53.095,104.353c0.73,0.001,2.189,0.636,2.187,1.95c-0.001,0.532-0.091,1.77-0.238,3
		c-0.162,1.355-0.392,2.699-0.648,3.082c-0.097,0.146-0.292,0.195-0.487,0.194c-0.695-0.001-1.391-0.449-1.392-0.794
		c0-0.065,0.025-0.127,0.079-0.181c0.098-0.292,0.245-1.266,0.393-2.287c-0.875-0.147-1.264-0.927-1.262-1.705
		C51.729,106.59,52.073,104.352,53.095,104.353L53.095,104.353z"/>
	<path style="fill:#010202;" d="M64.93,135.683c-0.004,2.726-3.073,4.57-4.923,4.567c-1.363-0.002-2.188-1.317-2.187-2.145
		c0.001-0.524,0.211-0.654,0.448-0.65c0.218,0.004,0.459,0.12,0.581,0.146c1.064,0.02,3.598-1.241,3.619-1.923
		c-0.018-1.119-6.591,0.524-6.581-6.144c0.006-3.698,1.865-10.168,3.812-10.165c0.537,0.001,1.357,0.414,1.825,0.859
		c0-2.104-0.217-2.847-0.217-3.157c0-0.398,0.63-0.848,1.222-0.847c0.909,0.002,1.846,1.114,1.845,1.789
		c0,0.168-0.043,0.398-0.061,0.679c-0.073,1.151-0.253,3.289-0.257,5.231c-0.002,1.709,0.069,3.866,0.105,4.895
		c0.014,0.396-0.548,0.801-1.125,0.8c-0.736-0.001-1.87-1.108-1.842-1.924c0.031-0.934,0.287-3.784,0.32-6.237
		c-1.235,0.736-2.655,6.087-2.659,8.521C58.848,134.699,64.936,131.887,64.93,135.683z"/>
	<path style="fill:#010202;" d="M96.05,109.353c-0.093,3.305-0.122,8.8-0.128,12.606c-0.002,1.527,0.162,20.542,0.162,20.83
		c-0.001,0.39-0.731,0.875-1.705,0.874c-0.583-0.001-1.756-0.985-1.758-2.051c0-0.107,0.018-0.221,0.059-0.337
		c0.13-0.516,0.197-1.109,0.208-8.102c-1.442-9.186-11.655-16.076-11.648-20.031c0.001-0.925,0.843-2.122,1.222-3.08
		c0.537-1.362,1.208-1.976,1.949-2.236c1.066-0.373,6.246-1.302,8.519-1.664c0.001-0.229,0.003-0.449,0.003-0.658
		c0.003-1.509-0.045-2.336-0.044-2.677c0.001-0.292,0.585-0.583,1.022-0.582c0.789,0.001,2.447,1.231,2.438,2.148
		c0,0.099-0.018,0.195-0.056,0.289c-0.03,0.108-0.058,0.781-0.083,1.034c2.204-0.277,5.471-0.442,6.166-0.44
		c1.07,0.001,2.091,1.268,2.089,2.241c-0.001,0.562-0.548,1.918-1.122,1.701c-0.438-0.098-1.021-0.147-1.85-0.148
		C100.103,109.069,98.199,109.149,96.05,109.353L96.05,109.353z M83.376,112.146c-0.003,1.634,7.765,10.638,9.342,15.241
		c0.019,0.056,0.042,0.079,0.064,0.078c0.04,0,0.065-0.065,0.065-0.159c0.006-4.487-0.001-11.052,0.002-13.268
		c0.003-1.547,0.012-3.032,0.035-4.359C91.437,109.888,83.379,110.691,83.376,112.146z"/>
	<path style="fill:#010202;" d="M111.373,129.224c0.494,0.001,1.338,0.486,1.318,1.183c-0.05,1.879-1.859,8.929-4.128,8.921
		c-0.333-0.001-1.079-0.175-2.011-1.883c-0.379-0.697-0.721-1.457-0.877-2.564c-0.011-0.079-0.037-0.113-0.065-0.113
		c-0.03,0-0.062,0.043-0.073,0.112c-0.475,2.631-1.315,5.093-2.607,5.091c-0.879-0.002-1.537-0.776-2.157-2.019
		c-0.503-1.006-1.271-1.999-1.267-4.792c0.006-3.891,0.148-9.837,0.152-12.508c0-0.646-0.084-1.273-0.084-1.565
		c0.002-0.422,0.935-0.915,1.318-0.915c0.955,0.002,2.012,1.108,2.013,1.829c0,0.087-0.022,0.177-0.069,0.267
		c-0.341,1.51-0.494,7.088-0.5,10.859c-0.006,3.277,0.172,6.073,0.63,6.07c1.009-0.008,2.622-8.077,2.634-15.184
		c0.002-0.903-0.072-1.463-0.072-1.739c0.001-0.452,0.797-0.78,1.154-0.779c0.835,0.001,2.004,0.939,2.002,1.814
		c0,0.045-0.004,0.09-0.01,0.136c-0.255,1.26-0.459,7.828-0.465,11.415c-0.004,2.39,0.094,3.782,0.354,3.783
		c0.504,0.001,1.991-4.219,2.479-7.195C111.061,129.326,111.2,129.225,111.373,129.224L111.373,129.224z"/>
	<path style="fill:#010202;" d="M110.701,140.915c0-0.146,0.032-0.341,0.049-0.438c0.05-0.925,0.052-2.142,0.055-3.602l0.006-3.894
		c0.008-4.915,0.169-14.405,0.176-18.883c0.006-3.602-0.235-4.722-0.234-5.16c0-0.486,0.926-0.776,1.363-0.775
		c0.926,0.001,1.945,0.928,1.945,1.706c-0.001,0.146-0.05,0.341-0.1,0.438c-0.094,0.47-0.402,11.652-0.412,18.46
		c0,0.073,0.031,0.14,0.075,0.14c0.034,0,0.068-0.051,0.099-0.186c0.718-4.283,1.187-9.604,2.707-9.601
		c0.292,0,0.535,0.195,1.07,0.39c0.609,0.224,0.973,0.245,1.361,0.538c0.973,0.731,1.895,2.68,1.888,6.914
		c-0.011,6.327-2.114,13.04-5.618,13.035c-0.535-0.001-1.168-0.148-1.605-0.49v0.438c-0.002,0.633-0.002,1.07,0.143,1.509
		c0.049,0.098,0.098,0.194,0.098,0.292c-0.001,0.243-0.146,0.438-0.633,0.437C112.549,142.183,110.699,141.791,110.701,140.915z
		 M117.83,125.694c0.004-1.996-0.235-4.575-0.625-4.576c-0.875-0.002-2.939,12.357-3.531,17.174
		C116.351,137.42,117.822,130.56,117.83,125.694z"/>
	<path style="fill:#010202;" d="M130.515,135.788c-0.004,2.726-3.073,4.57-4.923,4.567c-1.362-0.003-2.188-1.318-2.187-2.146
		c0.001-0.524,0.211-0.654,0.448-0.649c0.218,0.003,0.459,0.12,0.581,0.146c1.064,0.02,3.598-1.241,3.618-1.923
		c-0.019-1.119-6.591,0.524-6.581-6.144c0.006-3.698,1.865-10.169,3.812-10.166c0.537,0.001,1.357,0.414,1.824,0.859
		c0-2.104-0.217-2.846-0.217-3.156c0.001-0.398,0.631-0.848,1.223-0.847c0.908,0.001,1.846,1.114,1.845,1.789
		c-0.001,0.168-0.043,0.398-0.061,0.679c-0.073,1.151-0.253,3.288-0.257,5.23c-0.002,1.709,0.068,3.866,0.105,4.895
		c0.014,0.397-0.548,0.802-1.125,0.801c-0.736-0.002-1.87-1.108-1.842-1.924c0.031-0.934,0.286-3.785,0.319-6.238
		c-1.235,0.736-2.655,6.088-2.659,8.521C124.433,134.805,130.521,131.992,130.515,135.788z"/>
</g>
</svg>
